<svg xmlns="http://www.w3.org/2000/svg" xmlns:xlink="http://www.w3.org/1999/xlink" width="500" zoomAndPan="magnify" viewBox="0 0 375 374.999991" height="500" preserveAspectRatio="xMidYMid meet" version="1.0"><path fill="#32ad66" d="M 281.101562 257.59375 C 282.933594 255.761719 358.152344 189.917969 358.152344 189.917969 L 345.335938 184.425781 C 338.011719 180.835938 339.917969 176 341.675781 171.679688 C 343.433594 166.113281 356.394531 122.386719 356.394531 122.386719 C 356.394531 122.386719 321.460938 129.710938 314.136719 131.542969 C 308.640625 133.300781 306.8125 129.710938 304.980469 126.050781 C 303.148438 122.386719 293.992188 102.320312 293.992188 102.320312 C 293.992188 102.320312 255.46875 146.191406 253.636719 147.949219 C 246.3125 153.441406 238.914062 147.949219 240.746094 140.625 C 240.746094 133.300781 260.960938 45.703125 260.960938 45.703125 C 260.960938 45.703125 238.914062 58.449219 231.589844 62.109375 C 226.097656 65.773438 222.363281 65.773438 218.699219 58.449219 C 214.964844 52.953125 187.425781 0 187.425781 0 C 187.425781 0 159.960938 52.953125 156.296875 58.445312 C 152.636719 65.769531 148.972656 65.769531 143.40625 62.109375 C 136.082031 58.445312 114.039062 45.703125 114.039062 45.703125 C 114.039062 45.703125 134.253906 133.300781 134.253906 140.625 C 136.082031 147.949219 128.757812 153.441406 121.363281 147.949219 C 119.53125 146.117188 81.003906 102.320312 81.003906 102.320312 C 81.003906 102.320312 71.851562 122.3125 70.019531 125.976562 C 68.1875 129.636719 66.355469 133.226562 60.863281 131.46875 C 53.46875 129.636719 18.605469 122.3125 18.605469 122.3125 C 18.605469 122.3125 31.496094 166.039062 33.324219 171.605469 C 35.082031 176 36.988281 180.761719 29.664062 184.351562 L 16.847656 189.917969 C 16.847656 189.917969 91.992188 255.761719 93.894531 257.59375 C 97.632812 261.253906 101.21875 263.085938 97.632812 274.070312 C 93.894531 285.058594 90.234375 299.78125 90.234375 299.78125 C 90.234375 299.78125 159.960938 285.058594 167.359375 283.226562 C 173.730469 282.566406 180.761719 285.058594 180.761719 292.382812 C 180.761719 299.707031 176.511719 375 176.511719 375 L 198.484375 375 C 198.484375 375 194.238281 299.78125 194.238281 292.382812 C 194.238281 284.984375 201.195312 282.566406 207.714844 283.226562 C 215.039062 285.058594 284.765625 299.78125 284.765625 299.78125 C 284.765625 299.78125 281.101562 285.058594 277.441406 274.070312 C 273.777344 263.085938 277.441406 261.253906 281.101562 257.59375 Z M 281.101562 257.59375 " fill-opacity="1" fill-rule="nonzero"/></svg>