<svg xmlns="http://www.w3.org/2000/svg" xmlns:xlink="http://www.w3.org/1999/xlink" width="500" height="500" preserveAspectRatio="xMidYMid meet" version="1.0" viewBox="0 0 375 375" zoomAndPan="magnify"><defs><clipPath id="3fe954653b"><path d="M 5.859375 5 L 368.859375 5 L 368.859375 370 L 5.859375 370 Z M 5.859375 5" clip-rule="nonzero"/></clipPath></defs><g clip-path="url(#3fe954653b)"><path fill="#32ad66" fill-opacity="1" fill-rule="nonzero" d="M 146.28125 5.878906 C 118.8125 5.878906 96.609375 28.113281 96.609375 55.625 L 96.609375 59.601562 C 96.609375 69.339844 99.285156 78.835938 104.226562 87.195312 L 119.460938 112.59375 C 120.351562 114.054688 120.433594 115.109375 120.269531 116.003906 C 120.109375 116.976562 119.621094 118.03125 118.648438 118.925781 C 117.675781 119.816406 116.707031 120.386719 115.734375 120.546875 C 114.921875 120.710938 113.789062 120.628906 112.328125 119.734375 L 86.96875 104.480469 C 78.625 99.449219 69.144531 96.851562 59.421875 96.851562 L 55.53125 96.851562 C 28.0625 96.769531 5.863281 119.003906 5.863281 146.515625 C 5.863281 159.664062 11.128906 172.324219 20.367188 181.65625 L 21.339844 182.628906 C 24.09375 185.386719 24.09375 189.933594 21.339844 192.691406 L 20.367188 193.664062 C 11.128906 203 5.863281 215.660156 5.863281 228.804688 C 5.863281 256.316406 28.0625 278.550781 55.53125 278.550781 L 59.5 278.550781 C 69.222656 278.550781 78.703125 275.875 87.050781 270.921875 L 112.410156 255.667969 C 113.871094 254.773438 114.921875 254.691406 115.8125 254.855469 C 116.785156 255.015625 117.839844 255.503906 118.730469 256.476562 C 119.621094 257.453125 120.1875 258.425781 120.351562 259.398438 C 120.511719 260.210938 120.433594 261.347656 119.542969 262.808594 L 104.308594 288.207031 C 99.285156 296.566406 96.691406 306.0625 96.691406 315.800781 L 96.691406 319.777344 C 96.691406 347.207031 118.894531 369.523438 146.359375 369.523438 C 159.488281 369.523438 172.125 364.25 181.445312 354.996094 L 182.417969 354.023438 C 185.171875 351.265625 189.710938 351.265625 192.464844 354.023438 L 193.4375 354.996094 C 202.753906 364.328125 215.394531 369.523438 228.519531 369.523438 C 255.90625 369.523438 278.1875 347.289062 278.1875 319.777344 L 278.1875 315.800781 C 278.1875 306.0625 275.515625 296.566406 270.574219 288.207031 L 255.339844 262.808594 C 254.449219 261.347656 254.367188 260.292969 254.53125 259.398438 C 254.691406 258.425781 255.175781 257.371094 256.148438 256.476562 C 257.121094 255.585938 258.09375 255.015625 259.066406 254.855469 C 259.878906 254.691406 261.011719 254.773438 262.46875 255.667969 L 287.832031 270.921875 C 296.175781 275.953125 305.65625 278.550781 315.378906 278.550781 L 319.351562 278.550781 C 346.738281 278.550781 369.019531 256.316406 369.019531 228.804688 C 369.019531 215.660156 363.75 203 354.515625 193.664062 L 353.542969 192.691406 C 350.789062 189.933594 350.789062 185.386719 353.542969 182.628906 L 354.515625 181.65625 C 363.832031 172.324219 369.019531 159.664062 369.019531 146.515625 C 369.019531 119.085938 346.816406 96.769531 319.351562 96.769531 L 315.378906 96.769531 C 305.65625 96.769531 296.175781 99.449219 287.832031 104.398438 L 262.46875 119.65625 C 261.011719 120.546875 259.957031 120.628906 259.066406 120.464844 C 258.09375 120.304688 257.042969 119.816406 256.148438 118.84375 C 255.257812 117.871094 254.691406 116.894531 254.53125 115.921875 C 254.367188 115.109375 254.449219 113.972656 255.339844 112.511719 L 270.574219 87.113281 C 275.597656 78.753906 278.1875 69.257812 278.1875 59.519531 L 278.1875 55.625 C 278.109375 28.113281 255.90625 5.878906 228.4375 5.878906 C 215.3125 5.878906 202.671875 11.15625 193.355469 20.40625 L 192.382812 21.378906 C 189.628906 24.140625 185.089844 24.140625 182.335938 21.378906 L 181.363281 20.40625 C 172.046875 11.15625 159.40625 5.878906 146.28125 5.878906 Z M 146.28125 5.878906"/></g></svg>