<svg xmlns="http://www.w3.org/2000/svg" xmlns:xlink="http://www.w3.org/1999/xlink" width="500" zoomAndPan="magnify" viewBox="0 0 375 374.999991" height="500" preserveAspectRatio="xMidYMid meet" version="1.0"><defs><clipPath id="68cf8f8d55"><path d="M 4.460938 4 L 374.960938 4 L 374.960938 375 L 4.460938 375 Z M 4.460938 4 " clip-rule="nonzero"/></clipPath></defs><g clip-path="url(#68cf8f8d55)"><path fill="#32ad66" d="M 4.460938 4.796875 C 399.441406 4.796875 307.644531 267.40625 308.058594 307.960938 L 374.960938 375.578125 L 353.460938 375.578125 L 295.238281 316.652344 C 262.984375 320.128906 192.359375 345.207031 117.929688 286.03125 C 43.332031 226.855469 47.46875 156.007812 4.460938 4.796875 Z M 70.375 42.871094 C 29.273438 23.421875 66.074219 50.484375 66.074219 50.484375 C 103.457031 76.304688 120.65625 111.480469 140.671875 149.71875 C 166.722656 199.542969 206.003906 265.339844 259.925781 288.511719 C 313.679688 311.6875 288.210938 298.859375 264.886719 281.476562 C 241.566406 263.933594 208.484375 209.472656 189.628906 173.71875 C 163.414062 124.0625 139.183594 75.5625 70.375 42.871094 Z M 70.375 42.871094 " fill-opacity="1" fill-rule="nonzero"/></g></svg>