<svg xmlns="http://www.w3.org/2000/svg" xmlns:xlink="http://www.w3.org/1999/xlink" width="500" height="500" preserveAspectRatio="xMidYMid meet" version="1.0" viewBox="0 0 375 375" zoomAndPan="magnify"><path fill="#32ad66" fill-opacity="1" fill-rule="nonzero" d="M 199.21875 70.3125 C 141.648438 70.3125 92.945312 108.03125 76.390625 160.035156 C 101 147.582031 128.757812 140.625 158.203125 140.625 L 222.65625 140.625 C 229.101562 140.625 234.375 145.898438 234.375 152.34375 C 234.375 158.789062 229.101562 164.0625 222.65625 164.0625 L 158.203125 164.0625 C 146.042969 164.0625 134.253906 165.453125 122.828125 168.015625 C 103.855469 172.339844 86.277344 180.027344 70.53125 190.503906 C 28.050781 218.847656 0 267.261719 0 322.265625 L 0 333.984375 C 0 343.726562 7.835938 351.5625 17.578125 351.5625 C 27.320312 351.5625 35.15625 343.726562 35.15625 333.984375 L 35.15625 322.265625 C 35.15625 286.597656 50.316406 254.515625 74.5625 232.03125 C 89.0625 287.328125 139.378906 328.125 199.21875 328.125 L 199.949219 328.125 C 296.703125 327.613281 375 232.25 375 114.695312 C 375 83.496094 369.507812 53.832031 359.546875 27.101562 C 357.640625 22.046875 350.242188 22.265625 347.679688 27.027344 C 333.910156 52.808594 306.664062 70.3125 275.390625 70.3125 Z M 199.21875 70.3125"/></svg>