<svg xmlns="http://www.w3.org/2000/svg" xmlns:xlink="http://www.w3.org/1999/xlink" width="500" height="500" preserveAspectRatio="xMidYMid meet" version="1.0" viewBox="0 0 375 375" zoomAndPan="magnify"><defs><clipPath id="2ed6df1333"><path d="M 46.875 7 L 328.125 7 L 328.125 368 L 46.875 368 Z M 46.875 7" clip-rule="nonzero"/></clipPath></defs><g clip-path="url(#2ed6df1333)"><path fill="#32ad66" fill-opacity="1" fill-rule="nonzero" d="M 328.125 229.027344 C 287.769531 329.148438 191.089844 268.578125 191.089844 268.578125 C 161.425781 328.492188 112.425781 367.015625 55.882812 367.234375 C 44.089844 367.234375 43.726562 349.363281 55.882812 349.363281 C 103.050781 349.144531 144.140625 318.089844 171.019531 268.726562 C 140.917969 280.371094 84.15625 289.160156 52.660156 208.519531 C 132.496094 175.636719 169.1875 216.722656 183.25 241.84375 C 190.503906 223.972656 195.703125 204.566406 199.070312 183.472656 C 199.070312 183.472656 96.753906 199.511719 89.574219 111.621094 C 176.804688 76.539062 201.34375 167.796875 201.34375 167.796875 C 202.515625 155.566406 203.757812 129.273438 203.757812 128.6875 C 203.757812 128.6875 125.902344 74.707031 175.855469 7.691406 C 267.113281 39.183594 220.824219 126.636719 220.824219 126.636719 C 221.191406 127.808594 221.191406 144.066406 220.824219 151.097656 C 220.824219 151.097656 253.929688 85.914062 320.726562 108.984375 C 317.652344 207.128906 216.796875 186.914062 216.796875 186.914062 C 213.574219 206.980469 208.59375 226.023438 202.148438 243.675781 C 202.148438 243.675781 262.9375 176.441406 328.125 229.027344 Z M 328.125 229.027344"/></g></svg>